<svg xmlns="http://www.w3.org/2000/svg" viewBox="0 0 64 64">
  <defs>
    <linearGradient id="bg" x1="0" y1="0" x2="1" y2="1">
      <stop offset="0%" stop-color="#14A77A"/>
      <stop offset="100%" stop-color="#0B7052"/>
    </linearGradient>
  </defs>
  <rect x="2" y="2" width="60" height="60" rx="14" fill="url(#bg)"/>
  <path
    fill="#ffffff"
    d="M47 18H21a5 5 0 0 0-5 5v15a5 5 0 0 0 5 5h4l-2 7 9.5-7H47a5 5 0 0 0 5-5V23a5 5 0 0 0-5-5z"
  />
  <g stroke="#0B7052" stroke-width="2.6" stroke-linecap="round">
    <line x1="23" y1="26" x2="41" y2="26"/>
    <line x1="23" y1="32" x2="45" y2="32"/>
    <line x1="23" y1="38" x2="37" y2="38"/>
  </g>
</svg>
